<svg xmlns="http://www.w3.org/2000/svg" viewBox="0 0 151 70" class="design-iconfont">
  <g fill-rule="nonzero" fill="none">
    <path d="M17.6425484,23.8593823 C18.3581744,23.1626178 19.4985613,23.1626178 20.2141872,23.8593823 L20.2141872,23.8593823 L26.5001827,29.9797004 C27.2749731,30.8249262 27.744543,31.9401547 27.744543,33.1727758 C27.744543,35.7671496 25.6549569,37.8684749 23.0723223,37.8684749 C21.2879567,37.8684749 19.7266367,36.8588996 18.9283678,35.3797544 C18.1183597,36.8588996 16.568779,37.8684749 14.7961526,37.8684749 C12.2135181,37.8684749 10.1239319,35.7671496 10.1239319,33.1727758 C10.1239319,31.9401547 10.5935019,30.813187 11.356553,29.9797004 L11.356553,29.9797004 Z M33.1727758,10.1239319 C35.7671496,10.1239319 37.8684749,12.2135181 37.8684749,14.7961526 C37.8684749,16.5805183 36.8588996,18.1418382 35.3797544,18.9401071 C36.8588996,19.7501152 37.8684749,21.2996959 37.8684749,23.0723223 C37.8684749,25.6549569 35.7671496,27.744543 33.1727758,27.744543 C31.9401547,27.744543 30.813187,27.2749731 29.9797004,26.511922 L29.9797004,26.511922 L23.8593823,20.2259265 C23.1626178,19.5103005 23.1626178,18.3699136 23.8593823,17.6542877 L23.8593823,17.6542877 L29.9797004,11.3682922 C30.8249262,10.5935019 31.9401547,10.1239319 33.1727758,10.1239319 Z M4.69569914,10.1239319 C5.92832017,10.1239319 7.04354872,10.5935019 7.88877456,11.3682922 L14.0090926,17.6542877 C14.7058571,18.3699136 14.7058571,19.5103005 14.0090926,20.2259265 L7.88877456,26.511922 C7.05528796,27.2749731 5.92832017,27.744543 4.69569914,27.744543 C2.10132537,27.744543 6.88010949e-13,25.6549569 6.87536527e-13,23.0723223 C6.87210901e-13,21.2996959 1.00957532,19.7501152 2.48872055,18.9401071 C1.00957532,18.1418382 6.86344002e-13,16.5805183 6.86016219e-13,14.7961526 C6.85541797e-13,12.2135181 2.10132537,10.1239319 4.69569914,10.1239319 Z M23.0723223,7.48634081e-14 C25.6549569,7.42308451e-14 27.744543,2.10132537 27.744543,4.69569914 C27.744543,5.92832017 27.2749731,7.04354872 26.5001827,7.88877456 L20.2141872,14.0090926 C19.4985613,14.7058571 18.3581744,14.7058571 17.6425484,14.0090926 L11.356553,7.88877456 C10.5935019,7.05528796 10.1239319,5.92832017 10.1239319,4.69569914 C10.1239319,2.10132537 12.2135181,7.75230481e-14 14.7961526,7.68904851e-14 C16.568779,7.64563168e-14 18.1183597,1.00957532 18.9283678,2.48872055 C19.7266367,1.00957532 21.2879567,7.53004517e-14 23.0723223,7.48634081e-14 Z" transform="translate(4.2712 2.5)" fill="#F74346"/>
    <path d="M52.5227145,33.3315839 C58.0956638,35.0203564 60.8821385,33.6271191 60.8821385,29.1518719 L60.8821385,29.1518719 L60.8821385,5.84681115 C60.7976999,4.74910901 60.0799715,4.15803863 58.7289535,4.0736 C57.2934969,4.15803863 56.5757686,4.74910901 56.5757686,5.84681115 L56.5757686,5.84681115 L56.5757686,28.898556 C56.7446458,29.9962582 55.3091892,30.1229161 52.2693986,29.2785298 C50.833942,29.025214 50.0739944,29.5318457 49.9895557,30.7984251 C50.158433,31.9805659 51.0028193,32.8249521 52.5227145,33.3315839 Z M71.3837618,29.6830598 L71.6480633,29.6585037 C72.8302041,29.2363105 73.3368358,28.349705 73.1679586,26.9986869 C71.9013792,21.4257376 70.2126067,15.3883759 68.101641,8.88660168 C67.5950093,7.62002229 66.750623,7.11339053 65.5684822,7.36670641 C64.3863415,7.70446092 63.921929,8.50662786 64.1752449,9.77320725 C64.1752449,9.9420845 65.399605,14.4173317 67.8483251,23.1989488 C68.4393955,25.3943531 68.903808,26.9564676 69.2415625,27.8852925 C69.579317,29.2363105 70.3814839,29.8273809 71.6480633,29.6585037 L71.3837618,29.6830598 Z M44.7965802,29.2785298 C45.8942824,29.4474071 46.6964493,29.025214 47.2030811,28.0119505 C49.0607309,23.2833874 50.4539682,17.161587 51.3827931,9.64654931 C51.3827931,8.54884718 50.7495034,7.87333817 49.482924,7.62002229 C48.3007832,7.62002229 47.6252742,8.21109267 47.456397,9.39323344 C46.8653266,13.5307261 45.7254051,18.5548244 44.0366326,24.4655282 C43.6144395,25.9854234 43.4033429,26.8298097 43.4033429,26.9986869 C43.3189043,28.1808277 43.7833167,28.9407753 44.7965802,29.2785298 Z M76.7071017,20.5391321 C76.9604175,21.6368342 77.7625845,21.9323694 79.1136025,21.4257376 C81.5623227,20.66579 83.7155076,19.314772 85.5731574,17.3726836 C86.0797892,17.963754 87.008614,18.6814823 88.3596321,19.5258686 C89.9639659,20.9613252 91.1461067,21.0035445 91.9060543,19.6525265 C92.4971247,18.8081402 92.2015895,17.963754 91.0194488,17.1193677 C90.7661329,16.9504905 90.3017204,16.6971746 89.6262114,16.3594201 C88.7818252,15.7683497 88.1907548,15.3039373 87.8530003,14.9661827 L87.8530003,14.9661827 L91.3994226,14.9661827 C91.990493,15.0506214 92.3704668,14.7128669 92.539344,13.9529192 L92.539344,13.9529192 L92.539344,16.8660518 C92.3704668,18.8081402 93.2570724,19.6947458 95.1991608,19.5258686 L95.1991608,19.5258686 L102.165347,19.5258686 C104.107436,19.6947458 105.036261,18.7237016 104.951822,16.612736 L104.951822,16.612736 L104.951822,9.13991756 C105.036261,7.28226779 104.191874,6.39566221 102.418663,6.48010084 L102.418663,6.48010084 L94.9458449,6.48010084 C93.2570724,6.48010084 92.4549054,7.36670641 92.539344,9.13991756 L92.539344,9.13991756 L92.539344,12.5596819 C92.4549054,11.9686115 92.0749316,11.6730763 91.3994226,11.6730763 L91.3994226,11.6730763 L87.7263424,11.6730763 C87.8952196,10.7442515 87.9796582,10.0265231 87.9796582,9.51989137 L87.9796582,9.51989137 L90.3861591,9.51989137 C91.2305453,9.51989137 91.6949578,8.97104031 91.7793964,7.87333817 C91.6949578,6.86007466 91.2305453,6.31122359 90.3861591,6.22678496 L90.3861591,6.22678496 L82.9133407,6.22678496 C83.2510952,5.55127595 83.0399986,4.91798626 82.280051,4.32691588 C81.3512261,3.98916137 80.5490592,4.20025794 79.8735501,4.96020557 C79.451357,5.63571458 78.5225321,7.07117122 77.0870755,9.2665755 C76.6648824,10.4487163 76.9604175,11.2508832 77.9736811,11.6730763 C77.0448562,11.757515 76.4960051,12.306366 76.3271279,13.3196295 C76.4115665,14.4173317 76.9181982,14.9661827 77.8470231,14.9661827 L77.8470231,14.9661827 L83.1666566,14.9661827 C81.8156385,16.486078 80.1690853,17.5415608 78.2269969,18.1326312 C76.7071017,18.639263 76.2004699,19.4414299 76.7071017,20.5391321 Z M84.306578,11.6730763 L79.2402604,11.6730763 C79.4935763,11.5886377 79.9579888,11.0397866 80.6334978,10.0265231 C80.7179364,9.85764588 80.8445943,9.68876863 81.0134716,9.51989137 L81.0134716,9.51989137 L84.5598939,9.51989137 C84.4754553,10.279839 84.3910166,10.9131287 84.306578,11.4197605 L84.306578,11.4197605 L84.306578,11.6730763 Z M100.561858,16.11877 L100.392136,16.1061042 L97.0990298,16.1061042 C96.4235208,16.1905428 96.1279856,15.8527883 96.2124243,15.0928407 L96.2124243,15.0928407 L96.2124243,10.7864708 C96.2124243,10.1954004 96.5501788,9.85764588 97.2256878,9.77320725 L97.2256878,9.77320725 L100.392136,9.77320725 C101.067645,9.85764588 101.4054,10.1954004 101.4054,10.7864708 L101.4054,10.7864708 L101.4054,15.0928407 C101.320961,15.8527883 100.983207,16.1905428 100.392136,16.1061042 L100.561858,16.11877 Z M81.3622195,33.3491265 L81.6467613,33.3315839 L100.012162,33.3315839 C101.954251,33.4160225 102.883076,32.4871976 102.798637,30.5451092 L102.798637,30.5451092 L102.798637,23.5789226 C102.883076,21.6368342 101.912032,20.7080093 99.8855045,20.7924479 L99.8855045,20.7924479 L81.5201033,20.7924479 C79.9157695,20.7924479 79.1558218,21.6790535 79.2402604,23.4522647 L79.2402604,23.4522647 L79.2402604,30.5451092 C78.9869446,32.5716363 79.7891115,33.5004611 81.6467613,33.3315839 L81.3622195,33.3491265 Z M98.9988989,25.6054496 L83.0399986,25.6054496 L83.0399986,24.718844 C82.95556,24.2966509 83.1244372,24.0855544 83.5466304,24.0855544 L83.5466304,24.0855544 L98.3656092,24.0855544 C98.7033637,24.169993 98.9144603,24.3810895 98.9988989,24.718844 L98.9988989,24.718844 L98.9988989,25.6054496 Z M98.611009,30.3096046 L98.4922672,30.2917934 L83.4199724,30.2917934 C82.9977793,30.376232 82.8289021,30.1651354 82.9133407,29.6585037 L82.9133407,29.6585037 L82.9133407,28.7718981 L98.9988989,28.7718981 L98.9988989,29.6585037 C98.9988989,30.1651354 98.8300217,30.376232 98.4922672,30.2917934 L98.611009,30.3096046 Z M123.816576,33.9648736 C124.914278,33.880435 125.505348,33.3738032 125.589787,32.4449783 L125.589787,32.4449783 L125.589787,24.845502 L132.049342,24.845502 C132.387096,24.845502 132.598193,25.0565986 132.682631,25.4787917 L132.682631,25.4787917 L132.682631,28.2652663 C132.682631,28.9407753 132.471535,29.2363105 132.049342,29.1518719 C131.627149,29.2363105 130.95164,29.1940912 130.022815,29.025214 C129.516183,28.9407753 129.136209,28.8563367 128.882893,28.7718981 C127.531875,28.6030208 126.771928,29.1096526 126.60305,30.2917934 C126.60305,31.2206182 127.320779,31.8116886 128.756235,32.0650045 C132.049342,32.5716363 133.99143,32.6560749 134.582501,32.3183204 C135.680203,31.9805659 136.229054,31.051741 136.229054,29.5318457 L136.229054,29.5318457 L136.229054,23.4522647 C136.144615,22.1856853 135.384668,21.5101763 133.949211,21.4257376 L133.949211,21.4257376 L125.589787,21.4257376 L125.589787,20.5391321 C127.109682,20.7924479 127.86963,20.3280355 127.86963,19.1458947 L127.86963,19.1458947 L127.86963,9.13991756 C127.785191,8.80216305 127.996288,8.59106649 128.50292,8.50662786 L128.50292,8.50662786 L133.062605,8.50662786 C132.809289,8.92882099 132.598193,9.2665755 132.429316,9.51989137 C131.416052,11.1242253 130.90942,12.0952695 130.90942,12.433024 C130.90942,12.6863398 131.458271,13.4040682 132.555974,14.5862089 C133.822553,15.8527883 134.498062,16.612736 134.582501,16.8660518 C134.666939,17.288245 134.455843,17.4993415 133.949211,17.4993415 C132.851509,17.4993415 131.584929,17.4149029 130.149473,17.2460257 C128.967332,17.3304643 128.291823,17.8793153 128.122946,18.8925789 C128.207384,19.8214037 128.840674,20.4124741 130.022815,20.66579 C133.653676,21.2568604 136.017957,21.0457638 137.115659,20.0325003 C138.382239,18.7659209 138.677774,17.3304643 138.002265,15.7261304 C137.242317,14.5439896 136.44015,13.6151647 135.595764,12.9396557 C135.173571,12.5174626 134.962474,12.2219274 134.962474,12.0530502 C134.962474,11.8841729 135.384668,11.1664446 136.229054,9.89986519 C136.904563,8.97104031 137.368975,8.2955313 137.622291,7.87333817 C138.466677,6.18456565 137.791168,5.25574076 135.595764,5.08686351 L135.595764,5.08686351 L127.362998,5.08686351 C125.167594,4.91798626 124.19655,5.67793389 124.449865,7.36670641 L124.449865,7.36670641 L124.449865,19.3992106 C124.534304,19.4836492 124.576523,19.5258686 124.576523,19.5258686 C123.225505,19.1036754 122.381119,19.4836492 122.043365,20.66579 L122.043365,20.66579 L122.043365,21.4257376 L115.330494,21.4257376 C116.17488,21.0035445 117.019266,20.1169389 117.863653,18.7659209 L117.863653,18.7659209 L122.549996,18.7659209 C123.394383,18.7659209 123.901014,18.2592892 124.069892,17.2460257 C123.985453,16.1483235 123.521041,15.5572531 122.676654,15.4728145 L122.676654,15.4728145 L118.876916,15.4728145 C118.876916,15.3039373 118.919135,15.0506214 119.003574,14.7128669 C119.003574,14.5439896 119.045793,14.2906737 119.130232,13.9529192 L119.130232,13.9529192 L122.170023,13.9529192 C123.014409,13.9529192 123.478821,13.4885068 123.56326,12.5596819 C123.478821,11.630857 123.014409,11.1242253 122.170023,11.0397866 L122.170023,11.0397866 L119.383548,11.0397866 L119.383548,9.77320725 L122.549996,9.77320725 C123.394383,9.77320725 123.858795,9.22435618 123.943234,8.12665405 C123.943234,7.11339053 123.521041,6.56453947 122.676654,6.48010084 L122.676654,6.48010084 L119.636864,6.48010084 L119.636864,5.46683733 C119.552425,4.70688969 118.961355,4.32691588 117.863653,4.32691588 C116.76595,4.32691588 116.217099,4.70688969 116.217099,5.46683733 L116.217099,5.46683733 L116.217099,6.48010084 L111.91073,6.48010084 C110.897466,6.56453947 110.348615,7.11339053 110.264176,8.12665405 C110.348615,9.22435618 110.897466,9.77320725 111.91073,9.77320725 L111.91073,9.77320725 L115.963784,9.77320725 L115.963784,11.0397866 L112.417361,11.0397866 C111.488536,11.1242253 110.939685,11.630857 110.770808,12.5596819 C110.855247,13.4885068 111.361878,13.9529192 112.290703,13.9529192 L112.290703,13.9529192 L115.58381,13.9529192 C115.58381,14.2906737 115.499371,14.6706476 115.330494,15.0928407 L115.330494,15.0928407 L115.330494,15.4728145 L111.150782,15.4728145 C110.221957,15.5572531 109.673106,16.1061042 109.504229,17.1193677 C109.588667,18.2170698 110.095299,18.7659209 111.024124,18.7659209 L111.024124,18.7659209 L113.683941,18.7659209 C112.839554,19.4414299 111.86851,19.990281 110.770808,20.4124741 C109.757545,21.0035445 109.504229,21.7634921 110.01086,22.692317 C110.517492,23.4522647 111.361878,23.5789226 112.544019,23.0722908 C112.375142,23.3256067 112.290703,23.5789226 112.290703,23.8322385 L112.290703,23.8322385 L112.290703,30.5451092 C112.290703,31.5583728 112.839554,32.1072238 113.937257,32.1916624 C115.119397,32.1916624 115.752687,31.72725 115.837126,30.7984251 L115.837126,30.7984251 L115.837126,25.6054496 C115.837126,25.0988179 116.048222,24.845502 116.470415,24.845502 L116.470415,24.845502 L122.043365,24.845502 L122.043365,32.4449783 C122.043365,33.3738032 122.634435,33.880435 123.816576,33.9648736 Z" fill="#262626" transform="translate(4.2712 2.5)"/>
    <path d="M13.1766391,58.2445414 C13.6607257,58.2445414 13.9400064,57.9466419 14.0144812,57.3508431 C13.9400064,56.7922816 13.6607257,56.4943822 13.1766391,56.4571448 L13.1766391,56.4571448 L1.72612985,56.4571448 C1.27928071,56.4943822 1.03723743,56.7922816 1,57.3508431 C1.03723743,57.9466419 1.27928071,58.2445414 1.72612985,58.2445414 L1.72612985,58.2445414 L13.1766391,58.2445414 Z M28.5106029,63.4954804 C29.2153444,63.4647056 29.550789,63.1107962 29.5169368,62.4337521 L29.5169368,62.4337521 L29.5169368,57.4066992 C29.5169368,56.6619507 29.1445625,56.2895764 28.3998139,56.2895764 L28.3998139,56.2895764 L26.4448489,56.2895764 L26.4448489,54.6138921 L29.4052245,54.6138921 C29.889311,54.6138921 30.1685917,54.3159927 30.2430666,53.7201938 C30.1685917,53.124395 29.889311,52.8078768 29.4052245,52.7706394 L29.4052245,52.7706394 L26.4448489,52.7706394 L26.4448489,51.4859481 C26.4076115,51.039099 26.1097121,50.7970557 25.5511506,50.7598183 C24.9925892,50.7970557 24.7133085,51.039099 24.7133085,51.4859481 L24.7133085,51.4859481 L24.7133085,56.2895764 L23.8754663,56.2895764 C23.0934804,56.2895764 22.7211061,56.6619507 22.7583435,57.4066992 L22.7583435,57.4066992 L22.7583435,62.2661836 C22.6838686,63.1226445 23.0934804,63.5322562 23.9871786,63.4950188 L28.5106029,63.4954804 Z M22.0880698,54.6138921 C22.6093938,54.6138921 22.8886745,54.3159927 22.9259119,53.7201938 C22.8886745,53.1616324 22.6093938,52.863733 22.0880698,52.8264955 L22.0880698,52.8264955 L20.7475224,52.8264955 C20.6730475,52.4541212 20.5985727,52.1376031 20.5240978,51.8769411 C20.4868604,51.8024662 20.4682417,51.7093727 20.4682417,51.5976604 C20.2820545,51.1508112 19.9469177,50.9460054 19.4628311,50.9832428 C18.9042697,51.1321925 18.6808451,51.430092 18.7925574,51.8769411 C18.8670322,52.2493154 18.9228884,52.5285961 18.9601258,52.7147832 C18.9601258,52.7892581 18.9787445,52.8264955 19.0159819,52.8264955 L19.0159819,52.8264955 L17.7312907,52.8264955 C16.7631175,53.4222944 16.7631175,54.0180932 17.7312907,54.6138921 L17.7312907,54.6138921 L22.0880698,54.6138921 Z M17.3769533,63.776045 L17.5637222,63.7742995 C19.1276942,63.4019252 20.5240978,62.9923135 21.7529329,62.5454643 C21.7901704,62.5082269 21.8274078,62.4896082 21.8646452,62.4896082 C22.3859692,62.3778959 22.6466312,62.1358526 22.6466312,61.7634783 C22.6466312,61.5028163 22.5721564,61.2421543 22.4232066,60.9814923 C22.2742569,60.7580678 21.9763575,60.7208303 21.5295084,60.8697801 C21.6039832,60.3484561 21.6784581,59.7712759 21.7529329,59.1382396 C22.0135949,57.4625554 22.1625446,56.3454325 22.1997821,55.7868711 C22.1625446,55.2655471 21.8832639,54.9862664 21.3619399,54.9490289 C20.8778534,55.0235038 20.6171914,55.3214032 20.5799539,55.8427272 C20.3565294,57.6301238 20.0958674,59.4733765 19.7979679,61.3724853 C18.6063702,61.7820971 17.712672,62.0241403 17.1168731,62.0986152 C16.670024,62.2848023 16.4838368,62.6199392 16.5583117,63.1040258 C16.7072614,63.5881123 17.0423982,63.8115369 17.5637222,63.7742995 L17.3769533,63.776045 Z M18.2898521,61.3724853 C18.8484135,61.2980105 19.1463129,61.0187298 19.1835504,60.5346432 C19.1835504,59.1196209 19.0904568,57.5556489 18.9042697,55.8427272 C18.7925574,55.3586407 18.4760392,55.1352161 17.9547152,55.1724535 C17.4706287,55.2841658 17.2472041,55.5820652 17.2844415,56.0661518 C17.321679,56.7736629 17.3775351,57.4625554 17.45201,58.1328291 C17.4892474,58.7286279 17.5264848,59.5292326 17.5637222,60.5346432 C17.6009597,61.0559672 17.8430029,61.3352479 18.2898521,61.3724853 Z M24.9367331,61.8193345 C24.5643588,61.8565719 24.3967903,61.6517661 24.4340278,61.2049169 L24.4340278,61.2049169 L24.4340278,58.6355344 C24.4340278,58.2259226 24.6015962,58.0211168 24.9367331,58.0211168 L24.9367331,58.0211168 L27.282691,58.0211168 C27.6550653,58.0211168 27.8412525,58.2073039 27.8412525,58.5796782 L27.8412525,58.5796782 L27.8412525,61.2049169 C27.8412525,61.6517661 27.6550653,61.8565719 27.282691,61.8193345 L24.9367331,61.8193345 Z M44.0139817,63.7184433 C44.4608309,63.7184433 44.777349,63.5881123 44.9635361,63.3274503 C45.4848601,62.6199392 45.819997,61.3724853 45.9689467,59.5850888 C46.0061841,59.0637648 45.7827596,58.7472466 45.298673,58.6355344 C44.777349,58.5982969 44.4608309,58.8217215 44.3491186,59.3058081 C44.3118811,59.3430455 44.2932624,59.4547578 44.2932624,59.6409449 C44.0698379,60.7208303 43.9022694,61.2607731 43.7905571,61.2607731 C43.4181829,61.0373485 42.9899524,59.9947005 42.5058659,58.1328291 C42.2452039,57.1274185 42.040398,55.8985834 41.8914483,54.4463237 L41.8914483,54.4463237 L44.90768,54.4463237 C45.4662414,54.4463237 45.7641408,54.1484242 45.8013783,53.5526254 C45.7269034,52.994064 45.4103853,52.6961645 44.8518239,52.6589271 L44.8518239,52.6589271 L44.4049747,52.6589271 C44.8518239,52.3237902 44.9262987,51.9327972 44.6283993,51.4859481 C44.256025,51.2252861 43.7719384,50.9460054 43.1761396,50.648106 C42.7665279,50.5363937 42.4500097,50.6667247 42.2265851,51.039099 C42.040398,51.4487107 42.1148729,51.7652288 42.4500097,51.9886534 C42.822384,52.2493154 43.2319957,52.47274 43.6788449,52.6589271 L43.6788449,52.6589271 L41.779736,52.6589271 C41.779736,52.5099774 41.7611173,52.3237902 41.7238799,52.1003657 L41.7238799,52.1003657 L41.7238799,51.5418042 C41.649405,51.0204802 41.3142682,50.7598183 40.7184693,50.7598183 C40.1599079,50.7970557 39.8806272,51.0763364 39.8806272,51.5976604 C39.8433897,52.0072721 39.8620084,52.3610277 39.9364833,52.6589271 L39.9364833,52.6589271 L33.6805953,52.6589271 C33.0847965,52.6961645 32.7496596,52.994064 32.6751848,53.5526254 C32.7124222,54.1484242 33.0289403,54.4463237 33.6247392,54.4463237 L33.6247392,54.4463237 L40.0481956,54.4463237 C40.3088576,57.0157062 40.7743254,59.1010022 41.4445992,60.7022116 C42.30106,62.6385579 43.1575209,63.6439685 44.0139817,63.7184433 Z M33.7896894,63.5640175 L34.0157322,63.5508749 C36.2127405,63.0667883 38.1863242,62.4896082 39.9364833,61.8193345 C40.4205699,61.5959099 40.5695196,61.2235356 40.3833324,60.7022116 C40.1599079,60.2181251 39.7875336,60.0505566 39.2662096,60.1995063 C38.5959359,60.4229309 38.0187557,60.6277368 37.5346692,60.8139239 L37.5346692,60.8139239 L37.5346692,57.4625554 L39.042785,57.4625554 C39.564109,57.4625554 39.824771,57.1832746 39.824771,56.6247132 C39.7875336,56.1033892 39.5082529,55.8241085 38.9869289,55.7868711 L38.9869289,55.7868711 L34.2391568,55.7868711 C33.6805953,55.8241085 33.3826959,56.1033892 33.3454585,56.6247132 C33.3454585,57.1832746 33.6247392,57.4625554 34.1833006,57.4625554 L34.1833006,57.4625554 L35.8031288,57.4625554 L35.8031288,61.3166292 C35.0956176,61.5028163 34.3881065,61.6703848 33.6805953,61.8193345 C33.0475591,62.0055216 32.7682783,62.3406585 32.8427532,62.824745 C32.9917029,63.3833065 33.3826959,63.6253498 34.0157322,63.5508749 L33.7896894,63.5640175 Z M49.8533246,55.8985834 C50.3746486,55.8613459 50.6539293,55.5634465 50.6911667,55.0048851 L50.6911667,55.0048851 L50.6911667,53.7201938 C50.6911667,53.645719 50.7470229,53.5898628 50.8587351,53.5526254 L50.8587351,53.5526254 L59.6281495,53.5526254 C59.8143367,53.5526254 59.9074302,53.6643377 59.9074302,53.8877622 C59.9074302,54.1484242 59.8515741,54.4649424 59.7398618,54.8373167 C59.665387,55.2841658 59.8515741,55.5634465 60.2984232,55.6751588 C60.7080349,55.7496337 61.0059344,55.5820652 61.1921215,55.1724535 C61.4155461,54.8373167 61.5272584,54.1484242 61.5272584,53.1057762 C61.5272584,52.3237902 61.0617905,51.9327972 60.1308548,51.9327972 L60.1308548,51.9327972 L56.3884933,51.9327972 L56.2209248,51.3742358 C55.9975003,50.9273867 55.6065073,50.7411995 55.0479458,50.8156744 C54.452147,51.0018615 54.2101037,51.3183797 54.321816,51.7652288 L54.321816,51.7652288 L54.3776721,51.9327972 L50.3880893,51.9337888 C49.4415095,51.976094 49.0025926,52.4784688 49.0713386,53.4409131 L49.0713386,53.4409131 L49.0713386,55.0048851 C49.0713386,55.5634465 49.3320006,55.8613459 49.8533246,55.8985834 Z M53.9866791,63.9418679 C56.407112,64.2770048 57.5987097,63.6253498 57.5614722,61.9869029 C57.5614722,60.9442549 57.4311412,59.9388443 57.1704793,58.9706712 C57.3566664,58.9334338 57.5056161,58.8961964 57.6173284,58.8589589 C58.1758898,60.9814923 59.1626817,62.564083 60.5777039,63.606731 C60.9873157,63.9046305 61.3596899,63.867393 61.6948268,63.4950188 C62.0299637,63.0481696 62.0113449,62.694414 61.6389707,62.4337521 C60.3728981,61.6517661 59.5164372,60.2739812 59.0695881,58.3003975 C59.4791998,58.1886852 59.926049,58.0024981 60.4101355,57.7418361 C60.8569847,57.5184115 61.0059344,57.1646559 60.8569847,56.6805694 C60.6335601,56.1964828 60.2984232,56.0475331 59.8515741,56.2337202 C58.9206384,56.7550442 57.8221342,57.1832746 56.5560617,57.5184115 C56.4815868,57.3322244 56.276781,57.0343249 55.9416441,56.6247132 C55.8671693,56.5130009 55.7740757,56.3640512 55.6623634,56.1778641 C55.7368383,56.1778641 55.8671693,56.1033892 56.0533564,55.9544395 C56.2023061,55.8427272 56.3326371,55.7682524 56.4443494,55.7310149 L56.4443494,55.7310149 L58.4551705,55.7310149 C58.8647822,55.7310149 59.0882068,55.4703529 59.1254442,54.9490289 C59.0882068,54.4649424 58.8647822,54.2042804 58.4551705,54.1670429 L58.4551705,54.1670429 L51.8082896,54.1670429 C51.324203,54.2042804 51.063541,54.4649424 51.0263036,54.9490289 C51.063541,55.4703529 51.324203,55.7310149 51.8082896,55.7310149 L51.8082896,55.7310149 L53.53983,55.7310149 C52.3109948,56.3640512 51.0821597,56.8295191 49.8533246,57.1274185 C49.4064754,57.3136056 49.238907,57.6487425 49.3506193,58.1328291 C49.499569,58.5424408 49.8160871,58.6727718 50.3001737,58.5238221 C51.6407211,58.1142104 52.9626498,57.5742676 54.2659598,56.9039939 C54.3031973,57.0157062 54.3590534,57.0901811 54.4335283,57.1274185 C52.7950814,58.2817788 51.1752533,59.1382396 49.5740439,59.6968011 C49.2016696,59.8829882 49.0713386,60.2181251 49.1830509,60.7022116 C49.369238,61.1118233 49.6671374,61.2421543 50.0767491,61.0932046 C51.8641457,60.4974058 53.5770674,59.5664701 55.2155143,58.3003975 C55.3272265,58.4493472 55.4389388,58.6541531 55.5506511,58.9148151 C53.7260171,60.4415496 51.7710521,61.5028163 49.6857561,62.0986152 C49.1644321,62.2848023 48.9596263,62.5827018 49.0713386,62.9923135 C49.2575257,63.4019252 49.6112813,63.5508749 50.1326053,63.4391626 C52.1434264,62.8433638 54.0797727,61.8565719 55.9416441,60.4787871 C55.9416441,60.5532619 55.9602628,60.7022116 55.9975003,60.9256362 C55.9975003,61.1490608 56.016119,61.2980105 56.0533564,61.3724853 C56.2023061,62.1917088 55.5692698,62.5268456 54.1542476,62.3778959 C53.5956861,62.3406585 53.2605493,62.564083 53.148837,63.0481696 C53.148837,63.5694936 53.4281177,63.867393 53.9866791,63.9418679 Z M69.4891347,63.4391626 C69.7497966,63.8487743 70.1594084,63.9418679 70.7179698,63.7184433 C72.0957546,63.0481696 73.2501149,62.3220398 74.1810506,61.5400538 C74.7023746,62.1730901 75.2981735,62.7875076 75.9684472,63.3833065 C76.4525338,63.7556808 76.8807642,63.7929182 77.2531385,63.4950188 C77.8861748,62.9736948 77.7558438,62.4151333 76.8621455,61.8193345 C76.2291092,61.3352479 75.6891665,60.7394491 75.2423173,60.0319379 C76.0243033,58.3934911 76.4897712,56.4012887 76.6387209,54.0553307 L76.6387209,54.0553307 L76.9180016,54.0553307 C77.3276133,54.0553307 77.5324192,53.77605 77.5324192,53.2174885 C77.4951818,52.6961645 77.2717572,52.4168838 76.8621455,52.3796464 L76.8621455,52.3796464 L73.6224892,52.3796464 C73.6969641,52.0072721 73.7342015,51.7093727 73.7342015,51.4859481 C73.7342015,51.1135738 73.5107769,50.8901492 73.0639278,50.8156744 C72.5426038,50.778437 72.2447044,50.9273867 72.1702295,51.2625235 C72.0585172,52.1189844 71.9095675,52.9382078 71.7233804,53.7201938 C71.5371932,54.3159927 71.3137686,54.9117915 71.0531066,55.5075904 C70.9041569,55.2096909 70.6621136,55.0607412 70.3269768,55.0607412 L70.3269768,55.0607412 L69.4332785,55.0607412 L69.4332785,53.385057 L70.6621136,53.385057 C71.0717254,53.385057 71.2951499,53.1057762 71.3323874,52.5472148 C71.2951499,52.0258908 71.0717254,51.7466101 70.6621136,51.7093727 L70.6621136,51.7093727 L65.8026292,51.7093727 C65.2813052,51.7466101 65.0020245,52.0258908 64.9647871,52.5472148 C65.0020245,53.1057762 65.2813052,53.385057 65.8026292,53.385057 L65.8026292,53.385057 L67.8134504,53.385057 L67.8134504,60.5346432 L67.0314644,60.8697801 L67.0314644,55.3958781 C66.9942269,54.8745541 66.733565,54.5952734 66.2494784,54.5580359 C65.7281544,54.5952734 65.4674924,54.8745541 65.4674924,55.3958781 L65.4674924,55.3958781 L65.4674924,61.4283415 C64.9834058,61.6145286 64.6855064,61.8193345 64.5737941,62.0427591 C64.4248444,62.9736948 64.7972187,63.346069 65.690917,63.1598819 C68.4092492,62.0799965 70.2711206,61.2049169 71.2765312,60.5346432 C71.7233804,60.2739812 71.8537114,59.9016069 71.6675242,59.4175204 C71.4813371,58.9334338 71.0903441,58.8031028 70.4945452,59.0265274 C70.3828329,59.1010022 70.2525019,59.1940958 70.1035522,59.3058081 C69.8428902,59.4547578 69.6194657,59.5664701 69.4332785,59.6409449 L69.4332785,59.6409449 L69.4332785,56.6805694 L70.4945452,56.6805694 C70.3083581,56.9784688 70.1780271,57.2763682 70.1035522,57.5742676 C70.2525019,58.2445414 70.6434949,58.4679659 71.2765312,58.2445414 C71.5744306,57.9838794 71.8723301,57.5742676 72.1702295,57.0157062 C72.5053664,58.2073039 72.8777406,59.2313332 73.2873523,60.0877941 C72.4681289,60.9442549 71.3510061,61.6890035 69.9359838,62.3220398 C69.3401849,62.5827018 69.1912352,62.955076 69.4891347,63.4391626 Z M74.3486191,58.3003975 C73.8272951,57.1460372 73.4363021,55.8985834 73.1756401,54.5580359 L73.1756401,54.5580359 L73.2873523,54.0553307 L75.0747489,54.0553307 C74.9630366,55.4703529 74.7209933,56.8853752 74.3486191,58.3003975 Z M81.1375163,63.8301556 C81.6216029,63.9418679 81.9381211,63.7742995 82.0870708,63.3274503 C82.198783,62.8806012 82.2732579,62.3778959 82.3104953,61.8193345 C82.3849702,61.2980105 82.4408263,60.4229309 82.4780638,59.1940958 L82.4780638,59.1940958 L83.7068989,59.1940958 L83.7068989,61.7634783 C83.7441363,62.0613778 83.5765679,62.1730901 83.2041936,62.0986152 C82.720107,62.1358526 82.4780638,62.4151333 82.4780638,62.9364573 C82.4780638,63.2715942 82.6642509,63.4950188 83.0366252,63.606731 C83.0366252,63.6439685 83.371762,63.6625872 84.0420358,63.6625872 L84.254843,63.6625872 C84.9288097,63.628735 85.248867,63.2563607 85.2150147,62.5454643 L85.2143252,51.8900432 C85.1775475,51.3641219 84.8612592,51.1177113 84.2654603,51.1508112 L81.7742764,51.1502527 C81.2045437,51.180415 80.9364342,51.4971193 80.9699479,52.1003657 L80.9699479,59.0823835 C80.9327105,60.4229309 80.8023795,61.6890035 80.5789549,62.8806012 C80.4672426,63.3646878 80.6534298,63.6812059 81.1375163,63.8301556 Z M92.2528887,63.6625872 C92.7742127,64.0721989 93.2024431,64.0349615 93.53758,63.5508749 C93.7237671,63.215738 93.667911,62.8619825 93.3700116,62.4896082 C93.2955367,62.4523708 93.1279683,62.3406585 92.8673063,62.1544713 C92.2715074,61.6703848 91.843277,61.2421543 91.582615,60.8697801 C92.2528887,59.4175204 92.6997379,58.0397355 92.9231624,56.7364255 C92.9976373,55.7682524 92.7183566,55.3027845 92.0853203,55.3400219 L92.0853203,55.3400219 L87.2258359,55.3400219 L87.2258359,53.0499201 C87.2258359,52.9382078 87.3003107,52.863733 87.4492605,52.8264955 L87.4492605,52.8264955 L91.3591904,52.8264955 C91.3964279,52.8264955 91.4336653,52.8823517 91.4709027,52.994064 C91.4709027,53.3664382 91.3778091,53.515388 91.191622,53.4409131 L91.191622,53.4409131 L90.018643,53.4409131 C89.6090313,53.4781505 89.3856067,53.7015751 89.3483693,54.1111868 C89.3856067,54.5580359 89.6090313,54.7814605 90.018643,54.7814605 L90.018643,54.7814605 L91.582615,54.7814605 C92.6997379,54.8559354 93.2210619,54.2973739 93.146587,53.1057762 L93.146587,53.1057762 L93.1472766,51.9341764 C93.1178544,51.378833 92.8383438,51.1177113 92.3087449,51.1508112 L92.3087449,51.1508112 L86.7789867,51.1508112 C85.9970007,51.1508112 85.6246265,51.4859481 85.6618639,52.1562218 L85.6618639,63.1598819 C85.6618639,63.5694936 85.9225259,63.7929182 86.4438499,63.8301556 C86.9279365,63.7929182 87.1885985,63.5694936 87.2258359,63.1598819 L87.2258359,63.1598819 L87.2258359,56.8481378 L87.5051166,56.8481378 C88.063678,58.4121098 88.7339517,59.7526572 89.5159377,60.8697801 C89.0318512,61.4655789 88.4919084,61.9682842 87.8961096,62.3778959 C87.7843973,62.4151333 87.7099225,62.4337521 87.672685,62.4337521 C87.412023,62.7688889 87.4492605,63.1412632 87.7843973,63.5508749 C87.9705845,63.6998246 88.194009,63.7556808 88.454671,63.7184433 C88.7898079,63.6439685 89.0690886,63.4950188 89.2925132,63.2715942 C89.5904126,63.0109322 90.018643,62.6385579 90.5772044,62.1544713 C91.2474781,62.8619825 91.8060396,63.3646878 92.2528887,63.6625872 Z M83.7068989,54.5021798 L82.4780638,54.5021798 L82.4780638,53.0499201 C82.4408263,52.9009704 82.5153012,52.8264955 82.7014883,52.8264955 L82.7014883,52.8264955 L83.5393305,52.8264955 C83.6510428,52.8264955 83.7068989,52.9009704 83.7068989,53.0499201 L83.7068989,53.0499201 L83.7068989,54.5021798 Z M83.7068989,57.6859799 L82.4780638,57.6859799 L82.4780638,56.0102957 L83.7068989,56.0102957 L83.7068989,57.6859799 Z M90.4654922,59.4733765 C90.0558804,58.9148151 89.62765,58.0397355 89.1808009,56.8481378 L89.1808009,56.8481378 L91.2474781,56.8481378 C91.0985284,57.8163109 90.8378664,58.6913905 90.4654922,59.4733765 Z M97.1438171,63.8882916 L97.3102456,63.8860118 C99.8796281,63.4019252 101.704262,62.0427591 102.784148,59.8085133 L102.784148,59.8085133 L106.414797,59.8085133 C106.526509,59.8457508 106.600984,59.9388443 106.638221,60.0877941 C106.563747,60.6463555 106.489272,61.1676795 106.414797,61.6517661 C106.303085,62.1730901 105.521099,62.2848023 104.068839,61.9869029 C103.547515,61.9496655 103.230997,62.1544713 103.119284,62.6013205 C103.119284,63.1226445 103.398565,63.4577813 103.957127,63.606731 C104.143314,63.6439685 104.403976,63.6812059 104.739113,63.7184433 C105.111487,63.7184433 105.465242,63.737062 105.800379,63.7742995 C107.289876,64.0349615 108.127719,63.0481696 108.313906,60.8139239 C108.649043,58.8775776 108.202193,57.9838794 106.973358,58.1328291 L106.973358,58.1328291 L103.230997,58.1328291 C103.230997,58.0583542 103.249615,58.0024981 103.286853,57.9652606 C103.286853,57.9280232 103.305472,57.8535484 103.342709,57.7418361 C102.858622,56.9226126 102.300061,56.9039939 101.667025,57.6859799 C101.59255,57.7604548 101.536694,57.8535484 101.499456,57.9652606 C101.462219,58.0397355 101.4436,58.0955916 101.4436,58.1328291 L101.4436,58.1328291 L98.4273684,58.1328291 C100.28924,57.7976922 101.834593,57.3136056 103.063428,56.6805694 C104.9253,57.6115051 106.731315,58.1328291 108.481474,58.2445414 C108.928323,58.2817788 109.244841,58.0955916 109.431029,57.6859799 C109.542741,57.1646559 109.41241,56.8295191 109.040036,56.6805694 C107.513301,56.5316197 106.07966,56.1964828 104.739113,55.6751588 C105.856235,54.8931728 106.638221,54.2228991 107.085071,53.6643377 C108.164956,52.2493154 108.127719,51.4673294 106.973358,51.3183797 L106.973358,51.3183797 L101.555312,51.3183797 C101.108463,50.6108685 100.512664,50.6108685 99.7679159,51.3183797 C98.9859299,52.3610277 98.0736129,53.2361072 97.0309649,53.9436184 C96.4724034,54.7256044 96.5841157,55.2096909 97.3661017,55.3958781 C97.9619006,55.3958781 98.7438866,54.8931728 99.7120597,53.8877622 C100.270621,54.5580359 100.86642,55.1538348 101.499456,55.6751588 C100.419571,56.1964828 98.9673111,56.5688571 97.1426772,56.7922816 C96.6213532,56.9039939 96.4165473,57.2391308 96.5282596,57.7976922 C96.6772093,58.2073039 97.0309649,58.3748724 97.5895263,58.3003975 C97.2916269,58.4493472 97.1985333,58.7472466 97.3102456,59.1940958 C97.4219579,59.6037075 97.6453824,59.8085133 97.9805193,59.8085133 L97.9805193,59.8085133 L100.885039,59.8085133 C100.214765,61.0001111 98.911455,61.8751906 96.9751087,62.4337521 C96.6027344,62.5454643 96.4537847,62.8433638 96.5282596,63.3274503 C96.6399719,63.737062 96.9006339,63.9232492 97.3102456,63.8860118 L97.1438171,63.8882916 Z M103.119284,54.8373167 C102.300061,54.2415178 101.648406,53.6084815 101.164319,52.9382078 L101.164319,52.9382078 L105.297674,52.9382078 C105.372149,52.9754452 105.390768,53.0126827 105.35353,53.0499201 C105.055631,53.5340067 104.310882,54.1298055 103.119284,54.8373167 Z M118.733452,64.1094363 C119.254776,64.0349615 119.534057,63.7556808 119.571294,63.2715942 L119.571294,63.2715942 L119.571294,60.0319379 L124.486635,60.0319379 C124.970721,60.0319379 125.231383,59.7712759 125.268621,59.2499519 C125.231383,58.7286279 124.970721,58.4493472 124.486635,58.4121098 L124.486635,58.4121098 L119.571294,58.4121098 L119.571294,52.8823517 L124.151498,52.8823517 C124.598347,52.8823517 124.84039,52.6216897 124.877628,52.1003657 C124.84039,51.5790417 124.598347,51.299761 124.151498,51.2625235 L124.151498,51.2625235 L113.427119,51.2625235 C112.98027,51.299761 112.738226,51.5790417 112.700989,52.1003657 C112.738226,52.6216897 112.98027,52.8823517 113.427119,52.8823517 L113.427119,52.8823517 L117.89561,52.8823517 L117.89561,58.4121098 L112.924413,58.4121098 C112.514802,58.4493472 112.272758,58.7286279 112.198284,59.2499519 C112.235521,59.7712759 112.458946,60.0319379 112.868557,60.0319379 L112.868557,60.0319379 L117.89561,60.0319379 L117.89561,63.3274503 C117.89561,63.8115369 118.174891,64.0721989 118.733452,64.1094363 Z M121.023554,58.0211168 C121.507641,58.2817788 121.95449,58.1886852 122.364101,57.7418361 C123.2578,56.5502384 123.928073,55.4331155 124.374923,54.3904675 C124.523872,53.9436184 124.356304,53.5898628 123.872217,53.3292008 C123.388131,53.1802511 123.034375,53.3292008 122.810951,53.77605 C122.326864,54.7069857 121.693828,55.7123962 120.911842,56.7922816 C120.539467,57.2763682 120.576705,57.6859799 121.023554,58.0211168 Z M115.326228,57.6859799 C115.58689,58.1328291 115.959264,58.2073039 116.44335,57.9094045 C116.778487,57.5742676 116.834343,57.1274185 116.610919,56.5688571 C116.089595,55.6006839 115.456559,54.6511295 114.71181,53.7201938 C114.339436,53.3105821 113.929824,53.2361072 113.482975,53.4967692 C113.073363,53.8319061 113.036126,54.2228991 113.371263,54.6697482 C114.078774,55.6379214 114.730429,56.6433319 115.326228,57.6859799 Z M139.653954,57.0157062 C139.914616,57.3508431 140.268371,57.4066992 140.71522,57.1832746 C141.162069,56.9226126 141.329638,56.5874758 141.217926,56.1778641 C140.13804,54.6511295 138.927824,53.124395 137.587276,51.5976604 C137.10319,51.1508112 136.619103,51.0949551 136.135017,51.430092 C135.725405,51.8024662 135.744024,52.2306967 136.190873,52.7147832 C136.563247,53.124395 137.121808,53.77605 137.866557,54.6697482 C137.754845,54.7069857 137.587276,54.7256044 137.363852,54.7256044 C134.012483,54.8373167 132.001662,54.8745541 131.331388,54.8373167 C131.107964,54.8373167 131.070726,54.7256044 131.219676,54.5021798 C132.820885,53.0126827 133.640109,52.2306967 133.677346,52.1562218 C133.938008,51.8583224 133.91939,51.5231855 133.62149,51.1508112 C133.249116,50.8156744 132.89536,50.7411995 132.560223,50.9273867 C131.294151,51.9700347 129.897747,53.3292008 128.371013,55.0048851 C127.961401,55.8241085 128.240682,56.2895764 129.208855,56.4012887 C130.698352,56.4385261 132.243705,56.4199074 133.844915,56.3454325 C135.371649,56.3081951 137.065952,56.2337202 138.927824,56.1220079 C139.002299,56.2709577 139.114011,56.4199074 139.262961,56.5688571 C139.41191,56.7550442 139.542241,56.9039939 139.653954,57.0157062 Z M138.871968,63.5508749 C139.802903,63.6625872 140.212515,63.2902129 140.100803,62.4337521 L140.100803,62.4337521 L140.100803,58.8589589 C140.175278,57.8907858 139.821522,57.4625554 139.039536,57.5742676 L139.039536,57.5742676 L129.946064,57.5747293 C129.275174,57.6116589 128.973582,58.0024981 129.041286,58.7472466 L129.041286,58.7472466 L129.041286,62.3778959 C128.892337,63.2715942 129.28333,63.6625872 130.214265,63.5508749 L130.214265,63.5508749 L138.871968,63.5508749 Z M138.055784,62.1601709 L137.922413,62.1544713 L131.16382,62.1544713 C130.828683,62.1544713 130.679733,62.0241403 130.716971,61.7634783 L130.716971,61.7634783 L130.716971,59.4733765 C130.679733,59.2499519 130.847302,59.1382396 131.219676,59.1382396 L131.219676,59.1382396 L137.978269,59.1382396 C138.276169,59.1754771 138.425118,59.3058081 138.425118,59.5292326 L138.425118,59.5292326 L138.425118,61.7634783 C138.425118,62.0613778 138.25755,62.1917088 137.922413,62.1544713 L138.055784,62.1601709 Z" fill="#B0B0B0" transform="translate(4.2712 2.5)"/>
  </g>
</svg>
