<?xml version="1.0" standalone="no"?><!DOCTYPE svg PUBLIC "-//W3C//DTD SVG 1.1//EN" "http://www.w3.org/Graphics/SVG/1.1/DTD/svg11.dtd"><svg t="1674975302863" class="icon" viewBox="0 0 1024 1024" version="1.1" xmlns="http://www.w3.org/2000/svg" p-id="1499" xmlns:xlink="http://www.w3.org/1999/xlink" width="128" height="128"><path d="M428.520238 1022.464034c-31.231313 0-62.769819-23.756277-62.769819-76.798311v-453.62202L24.561126 115.527186A97.789849 97.789849 0 0 1 3.569587 81.326339 59.493091 59.493091 0 0 1 4.900758 37.704898 59.595489 59.595489 0 0 1 36.439264 7.395165 97.789849 97.789849 0 0 1 75.759999 0.022528H948.291204c15.052469 0 28.261778 2.457546 39.320734 7.372637 14.642878 6.34866 25.599437 16.895628 31.538507 30.309733 5.939069 13.311707 6.34866 28.466574 1.33117 43.621441a97.789849 97.789849 0 0 1-20.991538 34.09845L658.505579 492.146101V764.933699c0 51.506067-30.00254 115.197466-69.835264 147.862347l-106.493657 87.75487c-17.612413 14.438082-35.634416 21.81072-53.554022 21.81072z" fill="#000000" fill-opacity=".25" p-id="1500"></path></svg>