<svg xmlns="http://www.w3.org/2000/svg" viewBox="0 0 21 21" class="design-iconfont">
  <path d="M13.2971372,12.785904 L11.4470136,10.9342883 C11.8677675,10.4374406 12.2094436,9.88389559 12.4645816,9.28111339 C12.8002895,8.48585865 12.9718735,7.64136675 12.9718735,6.77151026 C12.9718735,5.90165376 12.8017815,5.05716186 12.4645816,4.26190712 C12.1393179,3.49350902 11.675295,2.80568081 11.082957,2.21334285 C10.4906191,1.6210049 9.80279086,1.15698196 9.03439275,0.8317183 C8.23913802,0.497502425 7.39464612,0.327410417 6.52478962,0.327410417 C5.65493313,0.327410417 4.81044123,0.497502425 4.01518649,0.83470237 C3.24678838,1.15996603 2.55896018,1.62398897 1.96662222,2.21632692 C1.37428426,2.80866488 0.910261329,3.49649309 0.584997664,4.26489119 C0.249289754,5.0586539 0.0791977464,5.9031458 0.0791977464,6.77300229 C0.0791977464,7.64285879 0.249289754,8.48735069 0.5864897,9.28260542 C0.911753364,10.0510035 1.3757763,10.7388317 1.96811425,11.3311697 C2.56045221,11.9235077 3.24828042,12.3875306 4.01667852,12.7127942 C4.81193326,13.0485022 5.65642516,13.2200862 6.52628166,13.2200862 C7.39613815,13.2200862 8.24063005,13.0499942 9.03588479,12.7127942 C9.63866699,12.4576562 10.192212,12.1159802 10.6890597,11.6952263 L12.5376913,13.5453499 C12.7465762,13.7542348 13.0882523,13.7542348 13.2971372,13.5453499 C13.5060221,13.3364649 13.5060221,12.9947889 13.2971372,12.785904 Z M6.52478962,12.1443289 C3.55862373,12.1443289 1.15346306,9.73916818 1.15346306,6.77300229 C1.15346306,3.8068364 3.55862373,1.40167573 6.52478962,1.40167573 C9.49095551,1.40167573 11.8961162,3.8068364 11.8961162,6.77300229 C11.8961162,9.73916818 9.49095551,12.1443289 6.52478962,12.1443289 Z M8.73300165,6.23586964 L7.06192228,6.23586964 L7.06192228,4.56479026 C7.06192228,4.2693673 6.82021258,4.0276576 6.52478962,4.0276576 C6.22936666,4.0276576 5.98765697,4.2693673 5.98765697,4.56479026 L5.98765697,6.23586964 L4.31657759,6.23586964 C4.02115463,6.23586964 3.77944493,6.47757933 3.77944493,6.77300229 C3.77944493,7.06842525 4.02115463,7.31013495 4.31657759,7.31013495 L5.98765697,7.31013495 L5.98765697,8.98121432 C5.98765697,9.27663728 6.22936666,9.51834698 6.52478962,9.51834698 C6.82021258,9.51834698 7.06192228,9.27663728 7.06192228,8.98121432 L7.06192228,7.31013495 L8.73300165,7.31013495 C9.02842461,7.31013495 9.27013431,7.06842525 9.27013431,6.77300229 C9.27013431,6.47757933 9.02842461,6.23586964 8.73300165,6.23586964 Z" transform="translate(3.5 3.713007)" fill="#FFF" fill-rule="nonzero"/>
</svg>
