<svg xmlns="http://www.w3.org/2000/svg" xmlns:xlink="http://www.w3.org/1999/xlink" width="25px" height="28px" viewBox="0 0 25 28" version="1.1">
    <title>编组 31@2x</title>
    <defs>
        <linearGradient x1="50%" y1="0%" x2="50%" y2="95.5689956%" id="linearGradient-1">
            <stop stop-color="#50EB20" stop-opacity="0.290783435" offset="0%"/>
            <stop stop-color="#4DEB1C" offset="100%"/>
        </linearGradient>
    </defs>
    <g id="页面1" stroke="none" stroke-width="1" fill="none" fill-rule="evenodd">
        <g id="列表风格-框架1收起" transform="translate(-19.000000, -14.000000)">
            <g id="编组-2" transform="translate(19.969799, 14.500000)">
                <path d="M10.984141,4.96589177 L1.44625464e-12,4.96589177 L1.44625464e-12,4.96589177 L4.8187846,1.81555505e-13 L11.066719,1.81555505e-13 C15.4443086,1.78974998e-13 18.9930462,3.54873759 18.9930462,7.92632724 C18.9930462,12.3039169 15.4443086,15.8526545 11.066719,15.8526545 L1.44625464e-12,15.8526545 L1.44625464e-12,15.8526545 C1.44713673e-12,13.1100682 2.22330548,10.8867627 4.96589177,10.8867627 L10.984141,10.8867627 C12.6191444,10.8867627 13.9445765,9.56133061 13.9445765,7.92632724 C13.9445765,6.29132388 12.6191444,4.96589177 10.984141,4.96589177 Z" id="路径-2备份" fill="#0061FD"/>
                <polygon id="矩形备份" fill="#5295FF" points="5.16395342 15.8526545 11.657956 15.8526545 23.3216647 25.7342074 16.2860314 25.7342074"/>
                <path d="M5.16395342,15.8526545 C5.16395342,15.7272268 5.16395342,14.0730323 5.16395342,10.8900709 L11.0141708,15.8526545 C7.11402587,15.9780822 5.16395342,15.9780822 5.16395342,15.8526545 Z" id="路径-3备份" fill="#4B88E9"/>
                <path d="M5.16395342,10.8900709 L5.16395342,10.8900709 L5.16395342,10.8900709 L5.16395342,26.6710789 L2.26428598e-13,23.3334863 L2.26428598e-13,16.0540243 C2.26967511e-13,13.2020516 2.3119807,10.8900709 5.16395342,10.8900709 Z" id="矩形备份-2" fill="url(#linearGradient-1)"/>
            </g>
        </g>
    </g>
</svg>