<?xml version="1.0" encoding="UTF-8"?>
<svg width="24px" height="27px" viewBox="0 0 24 27" version="1.1" xmlns="http://www.w3.org/2000/svg" xmlns:xlink="http://www.w3.org/1999/xlink">
    <title>logo2-fanbai@2x</title>
    <g id="皮肤1" stroke="none" stroke-width="1" fill="none" fill-rule="evenodd">
        <g id="编组-2" fill="#FFFFFF">
            <path d="M10.984141,4.96589177 L1.44625464e-12,4.96589177 L1.44625464e-12,4.96589177 L4.8187846,1.81555505e-13 L11.066719,1.81555505e-13 C15.4443086,1.78974998e-13 18.9930462,3.54873759 18.9930462,7.92632724 C18.9930462,12.3039169 15.4443086,15.8526545 11.066719,15.8526545 L1.44625464e-12,15.8526545 L1.44625464e-12,15.8526545 C1.44713673e-12,13.1100682 2.22330548,10.8867627 4.96589177,10.8867627 L10.984141,10.8867627 C12.6191444,10.8867627 13.9445765,9.56133061 13.9445765,7.92632724 C13.9445765,6.29132388 12.6191444,4.96589177 10.984141,4.96589177 Z" id="路径-2备份"></path>
            <polygon id="矩形备份" points="5.16395342 15.8526545 11.657956 15.8526545 23.3216647 25.7342074 16.2860314 25.7342074"></polygon>
            <path d="M5.16395342,15.8526545 C5.16395342,15.7272268 5.16395342,14.0730323 5.16395342,10.8900709 L11.6560974,15.8538666 C7.32800142,15.9784862 5.16395342,15.9780822 5.16395342,15.8526545 Z" id="路径-3备份"></path>
            <path d="M5.16395342,10.8900709 L5.16395342,10.8900709 L5.16395342,10.8900709 L5.16395342,26.6710789 L2.26428598e-13,23.3334863 L2.26428598e-13,16.0540243 C2.26967511e-13,13.2020516 2.3119807,10.8900709 5.16395342,10.8900709 Z" id="矩形备份-2"></path>
        </g>
    </g>
</svg>